#N canvas 34 39 847 457 10;
#X obj -77 312 lxpx;
#X text 639 21 midi channel;
#X text -22 238 value;
#X obj -77 102 vsl 15 128 32768 49151 0 0 empty empty group_delay
0 -9 0 10 -262144 -1 -1 0 1;
#X obj -77 239 nbx 5 14 -1e+037 1e+037 0 0 empty empty empty 0 -8 0
10 -262144 -1 -1 0 256;
#X obj 604 46 s midich;
#X floatatom 604 21 5 0 0 0 - - -;
#X obj -32 288 r midich;
#X obj -67 262 loadbang;
#X obj 23 312 lxpx;
#X text 78 238 value;
#X obj 23 102 vsl 15 128 32768 49151 0 0 empty empty effects_level
0 -9 0 10 -262144 -1 -1 0 1;
#X obj 23 239 nbx 5 14 -1e+037 1e+037 0 0 empty empty empty 0 -8 0
10 -262144 -1 -1 0 256;
#X obj 68 288 r midich;
#X obj 33 262 loadbang;
#X obj 124 312 lxpx;
#X text 179 238 value;
#X obj 124 102 vsl 15 128 32768 49151 0 0 empty empty high_cut
0 -9 0 10 -262144 -1 -1 0 1;
#X obj 124 239 nbx 5 14 -1e+037 1e+037 0 0 empty empty empty 0 -8 0
10 -262144 -1 -1 0 256;
#X obj 169 288 r midich;
#X obj 134 262 loadbang;
#X obj 224 312 lxpx;
#X text 279 238 value;
#X obj 224 102 vsl 15 128 32768 49151 0 0 empty empty delay_2_spread
0 -9 0 10 -262144 -1 -1 0 1;
#X obj 224 239 nbx 5 14 -1e+037 1e+037 0 0 empty empty empty 0 -8 0
10 -262144 -1 -1 0 256;
#X obj 269 288 r midich;
#X obj 234 262 loadbang;
#X obj 325 312 lxpx;
#X text 380 238 value;
#X obj 325 102 vsl 15 128 32768 49151 0 0 empty empty delay_3_spread
0 -9 0 10 -262144 -1 -1 0 1;
#X obj 325 239 nbx 5 14 -1e+037 1e+037 0 0 empty empty empty 0 -8 0
10 -262144 -1 -1 0 256;
#X obj 370 288 r midich;
#X obj 335 262 loadbang;
#X obj 425 312 lxpx;
#X text 480 238 value;
#X obj 425 239 nbx 5 14 -1e+037 1e+037 0 0 empty empty empty 0 -8 0
10 -262144 -1 -1 0 256;
#X obj 470 288 r midich;
#X obj 435 262 loadbang;
#X obj 526 312 lxpx;
#X text 581 238 value;
#X obj 526 102 vsl 15 128 32768 49151 0 0 empty empty diffusion
0 -9 0 10 -262144 -1 -1 0 1;
#X obj 526 239 nbx 5 14 -1e+037 1e+037 0 0 empty empty empty 0 -8 0
10 -262144 -1 -1 0 256;
#X obj 571 288 r midich;
#X obj 536 262 loadbang;
#X obj 626 312 lxpx;
#X text 681 238 value;
#X obj 626 102 vsl 15 128 32768 49151 0 0 empty empty rate
0 -9 0 10 -262144 -1 -1 0 1;
#X obj 626 239 nbx 5 14 -1e+037 1e+037 0 0 empty empty empty 0 -8 0
10 -262144 -1 -1 0 256;
#X obj 671 288 r midich;
#X obj 636 262 loadbang;
#X obj 425 102 vsl 15 128 16384 49151 0 0 empty empty delay_3_feedback
0 -9 0 10 -262144 -1 -1 0 1;
#X obj -98 -17 cnv 15 15 15 empty empty LXP-1:DELAY1 20 12 0 40 -262144
-66577 0;
#X obj 604 -6 loadbang;
#X obj -77 389 midiout;
#X msg -67 288 1;
#X msg 33 288 2;
#X msg 134 288 3;
#X msg 234 288 4;
#X msg 335 288 5;
#X msg 435 288 6;
#X msg 536 288 7;
#X msg 636 288 8;
#X text 619 409 2012 Even Brenden;
#X connect 0 0 53 0;
#X connect 3 0 4 0;
#X connect 4 0 0 0;
#X connect 6 0 5 0;
#X connect 7 0 0 2;
#X connect 8 0 54 0;
#X connect 9 0 53 0;
#X connect 11 0 12 0;
#X connect 12 0 9 0;
#X connect 13 0 9 2;
#X connect 14 0 55 0;
#X connect 15 0 53 0;
#X connect 17 0 18 0;
#X connect 18 0 15 0;
#X connect 19 0 15 2;
#X connect 20 0 56 0;
#X connect 21 0 53 0;
#X connect 23 0 24 0;
#X connect 24 0 21 0;
#X connect 25 0 21 2;
#X connect 26 0 57 0;
#X connect 27 0 53 0;
#X connect 29 0 30 0;
#X connect 30 0 27 0;
#X connect 31 0 27 2;
#X connect 32 0 58 0;
#X connect 33 0 53 0;
#X connect 35 0 33 0;
#X connect 36 0 33 2;
#X connect 37 0 59 0;
#X connect 38 0 53 0;
#X connect 40 0 41 0;
#X connect 41 0 38 0;
#X connect 42 0 38 2;
#X connect 43 0 60 0;
#X connect 44 0 53 0;
#X connect 46 0 47 0;
#X connect 47 0 44 0;
#X connect 48 0 44 2;
#X connect 49 0 61 0;
#X connect 50 0 35 0;
#X connect 52 0 6 0;
#X connect 54 0 0 1;
#X connect 55 0 9 1;
#X connect 56 0 15 1;
#X connect 57 0 21 1;
#X connect 58 0 27 1;
#X connect 59 0 33 1;
#X connect 60 0 38 1;
#X connect 61 0 44 1;
