#N canvas 337 139 816 375 10;
#X obj 97 307 lxpx;
#X floatatom 196 246 5 0 0 0 - - -;
#X obj 196 6 loadbang;
#X text 134 244 value;
#X obj 97 342 midiout;
#X obj 79 108 vsl 15 128 16384 49151 0 0 empty empty bipolar 0 -9 0
10 -262144 -1 -1 6350 1;
#X obj 79 245 nbx 5 14 -1e+037 1e+037 0 0 empty empty empty 0 -8 0
10 -262144 -1 -1 32767.5 256;
#X text 231 244 parameter;
#X text 331 244 midi channel;
#X floatatom 296 246 5 0 0 0 - - -;
#X msg 296 73 0;
#X obj 196 30 t b b b;
#X msg 30 72 32768;
#X text 39 244 value;
#X obj -16 108 vsl 15 128 32768 49151 0 0 empty empty unipolar 0 -9
0 10 -262144 -1 -1 0 1;
#X obj -16 245 nbx 5 14 -1e+037 1e+037 0 0 empty empty empty 0 -8 0
10 -262144 -1 -1 32768 256;
#X msg 196 73 0;
#X text 423 29 lxpx;
#X text 423 50 PureData external for formatting MIDI SysEx messages
to control Lexicon LXP-1 and LXP-5 audio effect units.;
#X text 423 84 Inlet #2: Parameter number;
#X text 423 105 Inlet #1: Parameter value;
#X text 423 126 Inlet #3: MIDI channel;
#X text 423 147 Outlet: Sequence of numbers that make a MIDI SysEx
message;
#X text 423 168 A new value on inlet #1 will produce an output on the
outlet.;
#X text 423 202 Usage: set up a MIDI connection to your LXP-X box.
Hold LEARN button while passing a message for the box to learn what
midi channel to listen to. Choose the desired effect on the box. Then
see an LXP-X owner's manual for correct mappings of parameter number
to valuespace (unipolar or bipolar) for that effect.;
#X text 423 288 2012 Even Brenden (evenbrenden+lxpx at gmail);
#X text 570 345;
#X connect 0 0 4 0;
#X connect 1 0 0 1;
#X connect 2 0 11 0;
#X connect 5 0 6 0;
#X connect 6 0 0 0;
#X connect 9 0 0 2;
#X connect 10 0 9 0;
#X connect 11 0 16 0;
#X connect 11 1 10 0;
#X connect 11 2 12 0;
#X connect 12 0 5 0;
#X connect 12 0 14 0;
#X connect 14 0 15 0;
#X connect 15 0 0 0;
#X connect 16 0 1 0;
